<?xml version="1.0" encoding="UTF-8"?>
<svg xmlns="http://www.w3.org/2000/svg" xmlns:xlink="http://www.w3.org/1999/xlink" width="810pt" height="809.999993pt" viewBox="0 0 810 809.999993" version="1.2">
<defs>
<clipPath id="clip1">
  <path d="M 86.070312 442 L 190.449219 442 L 190.449219 500.714844 L 86.070312 500.714844 Z M 86.070312 442 "/>
</clipPath>
<clipPath id="clip2">
  <path d="M 450 465 L 559.320312 465 L 559.320312 595.25 L 450 595.25 Z M 450 465 "/>
</clipPath>
<clipPath id="clip3">
  <path d="M 489 564.308594 L 522.964844 564.308594 L 522.964844 595.25 L 489 595.25 Z M 489 564.308594 "/>
</clipPath>
<clipPath id="clip4">
  <path d="M 453.550781 563 L 485 563 L 485 595.25 L 453.550781 595.25 Z M 453.550781 563 "/>
</clipPath>
</defs>
<g id="surface1">
<path style=" stroke:none;fill-rule:nonzero;fill:rgb(38.42926%,61.959839%,18.818665%);fill-opacity:1;" d="M 479.550781 453.117188 C 490.890625 461.605469 496.492188 482.527344 499.203125 494.621094 C 503.3125 512.949219 510.453125 533.699219 504.796875 552.054688 C 495.550781 582.089844 458.417969 578.78125 432.160156 578.78125 C 412.601562 578.78125 395.847656 571.847656 398.125 548.359375 C 399 539.375 401.851562 533.882812 402.679688 524.761719 C 403.664062 513.925781 399.960938 504.234375 399.261719 493.707031 C 397.765625 471.222656 417.773438 462.5 436.285156 456.191406 C 447.121094 452.5 464.183594 446.019531 475.359375 450.695312 C 476.84375 451.3125 478.230469 452.128906 479.550781 453.117188 "/>
<path style=" stroke:none;fill-rule:nonzero;fill:rgb(38.42926%,61.959839%,18.818665%);fill-opacity:1;" d="M 283.800781 459.371094 C 295.136719 467.859375 300.738281 488.78125 303.453125 500.875 C 307.5625 519.207031 314.695312 539.957031 309.042969 558.3125 C 299.796875 588.34375 262.667969 585.03125 236.40625 585.03125 C 216.851562 585.03125 200.097656 578.101562 202.375 554.613281 C 203.246094 545.628906 206.097656 540.140625 206.925781 531.015625 C 207.910156 520.179688 204.207031 510.488281 203.511719 499.964844 C 202.011719 477.480469 222.023438 468.757812 240.535156 462.445312 C 251.367188 458.753906 268.433594 452.273438 279.609375 456.949219 C 281.085938 457.566406 282.480469 458.382812 283.800781 459.371094 "/>
<path style=" stroke:none;fill-rule:nonzero;fill:rgb(45.098877%,78.819275%,23.529053%);fill-opacity:1;" d="M 567.703125 237.957031 C 594.15625 215.023438 640.519531 215.933594 671.925781 229.144531 C 706.855469 243.839844 724.359375 276.273438 721.675781 312.65625 C 719.367188 344.019531 708.839844 375.542969 678.136719 389.4375 C 664.039062 395.8125 646.289062 397.351562 630.019531 395.148438 C 622.800781 390.660156 618.332031 381.757812 619.023438 373.117188 C 615.617188 377.925781 613.53125 384.816406 613.609375 391.472656 C 605.742188 388.933594 598.828125 385.425781 593.683594 381.109375 C 602.820312 415.160156 585.140625 450.289062 547.632812 449.707031 L 540.257812 424.691406 C 552.953125 399.738281 538.742188 366.5625 537.988281 335.425781 C 537.164062 301.433594 540.175781 261.824219 567.703125 237.957031 "/>
<g clip-path="url(#clip1)" clip-rule="nonzero">
<path style=" stroke:none;fill-rule:nonzero;fill:rgb(45.098877%,78.819275%,23.529053%);fill-opacity:1;" d="M 139.675781 442.078125 C 140.140625 442.0625 140.613281 442.054688 141.101562 442.066406 C 151.417969 442.351562 161.894531 445.917969 171.328125 449.875 C 183.128906 454.828125 195.058594 465.625 188.324219 479.355469 C 176.671875 503.113281 130.570312 502.847656 109.453125 496.121094 C 100.691406 493.328125 90.746094 485.289062 87.257812 476.574219 C 85.464844 472.097656 85.566406 464.5625 88.484375 459.964844 C 106.59375 462.285156 125.84375 455.457031 139.675781 442.078125 "/>
</g>
<path style=" stroke:none;fill-rule:nonzero;fill:rgb(30.198669%,69.40918%,21.958923%);fill-opacity:1;" d="M 635.296875 348.300781 C 652.550781 348.300781 666.59375 334.230469 666.59375 316.941406 C 666.59375 299.648438 652.550781 285.582031 635.296875 285.582031 C 618.042969 285.582031 604.003906 299.648438 604.003906 316.941406 C 604.003906 334.230469 618.042969 348.300781 635.296875 348.300781 "/>
<path style=" stroke:none;fill-rule:nonzero;fill:rgb(100%,100%,100%);fill-opacity:1;" d="M 610.046875 318.648438 C 610.046875 333.5625 622.113281 345.65625 637 345.65625 C 651.886719 345.65625 663.953125 333.5625 663.953125 318.648438 C 663.953125 303.730469 651.886719 291.640625 637 291.640625 C 622.113281 291.640625 610.046875 303.730469 610.046875 318.648438 "/>
<path style=" stroke:none;fill-rule:nonzero;fill:rgb(1.568604%,2.349854%,2.349854%);fill-opacity:1;" d="M 614.246094 304.214844 C 619.023438 296.664062 627.417969 291.640625 637 291.640625 C 639.800781 291.640625 642.5 292.066406 645.042969 292.863281 C 648.972656 296.304688 651.46875 301.347656 651.46875 306.988281 C 651.46875 317.351562 643.085938 325.753906 632.742188 325.753906 C 622.402344 325.753906 614.015625 317.351562 614.015625 306.988281 C 614.015625 306.042969 614.109375 305.121094 614.246094 304.214844 "/>
<path style=" stroke:none;fill-rule:nonzero;fill:rgb(100%,100%,100%);fill-opacity:1;" d="M 624.234375 303.578125 C 624.234375 307.976562 627.792969 311.539062 632.179688 311.539062 C 636.566406 311.539062 640.117188 307.976562 640.117188 303.578125 C 640.117188 299.183594 636.566406 295.621094 632.179688 295.621094 C 627.792969 295.621094 624.234375 299.183594 624.234375 303.578125 "/>
<path style=" stroke:none;fill-rule:nonzero;fill:rgb(57.649231%,32.939148%,16.079712%);fill-opacity:1;" d="M 129.867188 428.308594 L 129.839844 428.328125 C 326.351562 533.285156 551.039062 448 543.136719 419.367188 C 542.992188 419.296875 542.851562 419.214844 542.707031 419.140625 C 560.8125 407.121094 580.308594 424.355469 577.808594 448.363281 C 574.660156 478.628906 508.605469 493.292969 476.5 498.53125 C 378.90625 514.453125 281.316406 513.882812 187.40625 493.699219 C 157.539062 487.277344 111.75 480.460938 111.371094 454.4375 C 111.082031 435.113281 119.117188 429.03125 129.867188 428.308594 "/>
<path style=" stroke:none;fill-rule:nonzero;fill:rgb(66.268921%,40.779114%,21.179199%);fill-opacity:1;" d="M 129.839844 428.328125 L 129.867188 428.308594 C 164.933594 404.238281 173.53125 362.601562 186.714844 323.835938 C 192.902344 305.644531 200.09375 288.089844 211.496094 273.273438 C 244.441406 230.5 300.25 218.289062 353.585938 220.566406 C 421.625 223.46875 472.46875 262.160156 494.300781 326.324219 C 502.8125 351.339844 509.859375 388.003906 530.292969 409.726562 C 530.46875 409.921875 530.660156 410.105469 530.84375 410.300781 C 530.945312 410.40625 531.046875 410.511719 531.152344 410.613281 C 534.515625 414.109375 538.425781 416.925781 542.707031 419.140625 C 542.851562 419.214844 542.992188 419.296875 543.136719 419.367188 C 551.039062 448 326.351562 533.285156 129.839844 428.328125 "/>
<path style=" stroke:none;fill-rule:nonzero;fill:rgb(52.938843%,82.749939%,56.079102%);fill-opacity:1;" d="M 544.339844 383.726562 C 544.339844 383.726562 544.34375 383.726562 544.34375 383.726562 C 543.597656 377.886719 542.578125 371.929688 541.578125 365.925781 C 542.578125 371.929688 543.589844 377.886719 544.339844 383.726562 "/>
<path style=" stroke:none;fill-rule:nonzero;fill:rgb(32.159424%,72.549438%,22.749329%);fill-opacity:1;" d="M 544.34375 383.726562 C 549.386719 382.316406 554.515625 377.566406 554.871094 371.949219 C 555.230469 366.238281 551.546875 358.347656 545.097656 358.347656 C 544.765625 358.347656 544.425781 358.367188 544.082031 358.414062 C 542.796875 358.570312 541.648438 359.160156 540.609375 360.011719 C 540.921875 361.988281 541.25 363.960938 541.578125 365.925781 C 542.578125 371.929688 543.597656 377.886719 544.34375 383.726562 "/>
<path style=" stroke:none;fill-rule:nonzero;fill:rgb(52.938843%,82.749939%,56.079102%);fill-opacity:1;" d="M 545.175781 406.921875 C 545.175781 406.921875 545.179688 406.921875 545.183594 406.921875 C 545.648438 402.078125 545.585938 397.054688 545.195312 391.90625 C 545.585938 397.054688 545.644531 402.078125 545.175781 406.921875 "/>
<path style=" stroke:none;fill-rule:nonzero;fill:rgb(32.159424%,72.549438%,22.749329%);fill-opacity:1;" d="M 545.183594 406.921875 C 546.625 406.71875 547.933594 406.410156 548.960938 406.015625 C 558.972656 402.144531 553.058594 391.207031 544.863281 388.191406 C 544.992188 389.4375 545.105469 390.675781 545.195312 391.90625 C 545.585938 397.054688 545.648438 402.078125 545.183594 406.921875 "/>
<path style=" stroke:none;fill-rule:nonzero;fill:rgb(32.159424%,72.549438%,22.749329%);fill-opacity:1;" d="M 537.96875 319 C 538.234375 318.917969 538.507812 318.832031 538.742188 318.738281 C 546.894531 315.585938 544.492188 307.75 538.898438 303.316406 C 538.390625 308.546875 538.097656 313.796875 537.96875 319 "/>
<path style=" stroke:none;fill-rule:nonzero;fill:rgb(52.938843%,82.749939%,56.079102%);fill-opacity:1;" d="M 538.308594 341.730469 C 538.148438 339.625 538.039062 337.519531 537.988281 335.425781 C 537.882812 331.183594 537.84375 326.84375 537.898438 322.46875 C 537.839844 326.84375 537.882812 331.179688 537.988281 335.425781 C 538.039062 337.519531 538.148438 339.621094 538.308594 341.730469 "/>
<path style=" stroke:none;fill-rule:nonzero;fill:rgb(32.159424%,72.549438%,22.749329%);fill-opacity:1;" d="M 540.019531 353.492188 C 542.882812 353.492188 545.585938 351.738281 546.417969 348.203125 C 547.507812 343.558594 548.402344 332.363281 546.226562 328.292969 C 544.542969 325.148438 541.015625 322.550781 537.898438 322.46875 C 537.84375 326.84375 537.882812 331.183594 537.988281 335.425781 C 538.039062 337.519531 538.148438 339.625 538.308594 341.730469 C 538.605469 345.632812 539.070312 349.558594 539.621094 353.484375 C 539.753906 353.492188 539.886719 353.492188 540.019531 353.492188 "/>
<g clip-path="url(#clip2)" clip-rule="nonzero">
<path style=" stroke:none;fill-rule:nonzero;fill:rgb(45.098877%,78.819275%,23.529053%);fill-opacity:1;" d="M 531.746094 469.605469 C 543.089844 478.09375 548.695312 499.011719 551.402344 511.109375 C 555.515625 529.441406 562.648438 550.191406 556.996094 568.546875 C 547.75 598.578125 510.625 595.269531 484.355469 595.269531 C 464.804688 595.269531 448.050781 588.335938 450.324219 564.847656 C 451.199219 555.863281 454.050781 550.375 454.878906 541.25 C 455.863281 530.414062 452.15625 520.722656 451.460938 510.195312 C 449.964844 487.714844 469.976562 478.988281 488.484375 472.679688 C 499.316406 468.988281 516.382812 462.507812 527.558594 467.183594 C 529.039062 467.796875 530.429688 468.621094 531.746094 469.605469 "/>
</g>
<path style=" stroke:none;fill-rule:nonzero;fill:rgb(67.83905%,85.488892%,16.468811%);fill-opacity:1;" d="M 526.398438 593.296875 C 536.707031 591.195312 545.867188 587.027344 551.855469 578.890625 C 549.757812 570.789062 545.042969 565.132812 539.546875 565.132812 C 532.105469 565.132812 526.074219 575.503906 526.074219 588.300781 C 526.074219 590.019531 526.1875 591.6875 526.398438 593.296875 "/>
<g clip-path="url(#clip3)" clip-rule="nonzero">
<path style=" stroke:none;fill-rule:nonzero;fill:rgb(67.83905%,85.488892%,16.468811%);fill-opacity:1;" d="M 499.402344 595.375 C 506.808594 595.375 514.472656 595.160156 521.734375 594.109375 C 522.152344 592.085938 522.386719 589.949219 522.386719 587.738281 C 522.386719 574.9375 514.957031 564.5625 505.789062 564.5625 C 496.625 564.5625 489.191406 574.9375 489.191406 587.738281 C 489.191406 590.390625 489.527344 592.929688 490.117188 595.304688 C 493.132812 595.335938 496.246094 595.375 499.402344 595.375 "/>
</g>
<g clip-path="url(#clip4)" clip-rule="nonzero">
<path style=" stroke:none;fill-rule:nonzero;fill:rgb(67.83905%,85.488892%,16.468811%);fill-opacity:1;" d="M 483.289062 595.257812 C 484.332031 592.316406 484.933594 589.011719 484.933594 585.511719 C 484.933594 573.371094 477.886719 563.53125 469.191406 563.53125 C 461.15625 563.53125 454.535156 571.941406 453.578125 582.804688 C 459.074219 591.84375 470.511719 595.089844 483.289062 595.257812 "/>
</g>
<path style=" stroke:none;fill-rule:nonzero;fill:rgb(32.159424%,72.549438%,22.749329%);fill-opacity:1;" d="M 503.125 524.3125 C 508.886719 524.308594 516.148438 518.820312 516.570312 512.105469 C 516.933594 506.394531 513.25 498.5 506.796875 498.5 C 506.464844 498.5 506.128906 498.523438 505.78125 498.566406 C 502.015625 499.035156 499.265625 503.03125 497.675781 507.460938 C 496.421875 510.960938 495.890625 514.722656 496.148438 517.242188 C 496.664062 522.277344 499.621094 524.3125 503.125 524.3125 "/>
<path style=" stroke:none;fill-rule:nonzero;fill:rgb(32.159424%,72.549438%,22.749329%);fill-opacity:1;" d="M 486.183594 531.132812 C 488.984375 531.132812 491.367188 529.71875 490.960938 525.820312 C 490.671875 522.976562 488.375 520.542969 488.121094 517.15625 C 487.914062 514.453125 489.054688 512.105469 487.203125 509.738281 C 486.371094 508.671875 485.390625 508.207031 484.363281 508.207031 C 482.554688 508.207031 480.59375 509.652344 479.023438 511.824219 C 475.316406 516.949219 473.773438 526.128906 481.472656 529.976562 C 482.894531 530.683594 484.605469 531.132812 486.183594 531.132812 "/>
<path style=" stroke:none;fill-rule:nonzero;fill:rgb(32.159424%,72.549438%,22.749329%);fill-opacity:1;" d="M 524.46875 506.800781 C 526.835938 506.800781 528.101562 504.210938 528.179688 501.003906 C 528.300781 495.792969 525.289062 488.960938 518.773438 488.960938 C 518.316406 488.960938 517.847656 488.996094 517.359375 489.0625 C 513.519531 489.605469 509.046875 492.71875 512.542969 496.824219 C 514.171875 498.738281 517.050781 499.363281 518.925781 501.6875 C 520.417969 503.542969 520.757812 505.816406 523.285156 506.605469 C 523.703125 506.738281 524.101562 506.800781 524.46875 506.800781 "/>
<path style=" stroke:none;fill-rule:nonzero;fill:rgb(32.159424%,72.549438%,22.749329%);fill-opacity:1;" d="M 500.738281 547.058594 C 501.289062 547.058594 501.871094 546.992188 502.46875 546.863281 C 507.117188 545.828125 517.5625 541.765625 520.277344 538.03125 C 523.636719 533.398438 523.6875 525.078125 517.113281 525.078125 C 516.484375 525.078125 515.796875 525.152344 515.046875 525.316406 C 511.867188 526 505.054688 528.65625 500.191406 531.769531 C 497.792969 533.300781 495.859375 534.949219 495.078125 536.523438 C 492.625 541.4375 495.53125 547.058594 500.738281 547.058594 "/>
<path style=" stroke:none;fill-rule:nonzero;fill:rgb(32.159424%,72.549438%,22.749329%);fill-opacity:1;" d="M 490.523438 504.402344 C 493.039062 504.402344 495.71875 502.371094 495.71875 499.234375 C 495.714844 495.996094 493.855469 494.671875 491.785156 494.671875 C 489.464844 494.671875 486.882812 496.335938 486.359375 498.839844 C 486.214844 499.539062 486.226562 500.308594 486.457031 501.125 C 487.097656 503.417969 488.773438 504.402344 490.523438 504.402344 "/>
<path style=" stroke:none;fill-rule:nonzero;fill:rgb(32.159424%,72.549438%,22.749329%);fill-opacity:1;" d="M 524.757812 522.652344 C 529.535156 522.652344 531.71875 515.628906 527.457031 512.296875 C 526.15625 511.277344 524.9375 510.855469 523.851562 510.855469 C 519.671875 510.855469 517.484375 517.199219 520.367188 520.628906 C 520.90625 521.265625 521.625 521.804688 522.53125 522.179688 C 523.320312 522.507812 524.066406 522.652344 524.757812 522.652344 "/>
<path style=" stroke:none;fill-rule:nonzero;fill:rgb(32.159424%,72.549438%,22.749329%);fill-opacity:1;" d="M 485.609375 546.539062 C 490.386719 546.539062 492.566406 539.511719 488.308594 536.179688 C 487.007812 535.164062 485.789062 534.734375 484.703125 534.734375 C 480.523438 534.734375 478.335938 541.082031 481.214844 544.511719 C 481.757812 545.152344 482.472656 545.691406 483.386719 546.066406 C 484.171875 546.394531 484.917969 546.539062 485.609375 546.539062 "/>
<path style=" stroke:none;fill-rule:nonzero;fill:rgb(32.159424%,72.549438%,22.749329%);fill-opacity:1;" d="M 558.789062 393.398438 C 564.21875 393.398438 566.691406 385.425781 561.851562 381.640625 C 560.378906 380.488281 558.996094 380 557.761719 380 C 553.015625 380 550.53125 387.207031 553.800781 391.101562 C 554.414062 391.828125 555.226562 392.4375 556.261719 392.863281 C 557.160156 393.234375 558.003906 393.398438 558.789062 393.398438 "/>
<path style=" stroke:none;fill-rule:nonzero;fill:rgb(32.159424%,72.549438%,22.749329%);fill-opacity:1;" d="M 554.261719 357.765625 C 559.042969 357.765625 561.222656 350.738281 556.960938 347.410156 C 555.660156 346.390625 554.441406 345.964844 553.355469 345.964844 C 549.175781 345.964844 546.988281 352.308594 549.871094 355.738281 C 550.410156 356.378906 551.125 356.917969 552.039062 357.292969 C 552.824219 357.617188 553.570312 357.765625 554.261719 357.765625 "/>
<path style=" stroke:none;fill-rule:nonzero;fill:rgb(30.198669%,69.40918%,21.958923%);fill-opacity:1;" d="M 677.753906 377.953125 C 678.613281 377.953125 679.515625 377.699219 680.332031 377.179688 C 682.378906 375.875 683.125 373.371094 681.988281 371.582031 C 681.304688 370.5 680.101562 369.929688 678.800781 369.929688 C 677.941406 369.929688 677.042969 370.179688 676.230469 370.699219 C 674.175781 372.003906 673.429688 374.511719 674.566406 376.300781 C 675.25 377.378906 676.453125 377.953125 677.753906 377.953125 "/>
<path style=" stroke:none;fill-rule:nonzero;fill:rgb(30.198669%,69.40918%,21.958923%);fill-opacity:1;" d="M 603.996094 286.703125 C 612.289062 278.414062 623.796875 272.253906 634.738281 272.253906 C 637.910156 272.253906 641.03125 272.769531 644.011719 273.902344 C 641.054688 266.832031 635.457031 263.46875 628.460938 263.46875 C 626.65625 263.46875 624.757812 263.691406 622.789062 264.136719 C 611.015625 266.78125 607.144531 276.289062 603.996094 286.703125 "/>
<path style=" stroke:none;fill-rule:nonzero;fill:rgb(76.078796%,55.288696%,21.179199%);fill-opacity:1;" d="M 313.515625 333.914062 C 315.171875 333.914062 316.847656 333.851562 318.523438 333.714844 C 351.582031 331.066406 388.617188 319.070312 419.394531 308.960938 C 439.554688 302.34375 451.632812 286.289062 436.820312 266.726562 C 418.03125 241.894531 382.828125 231.480469 347.828125 231.480469 C 321.667969 231.480469 295.621094 237.296875 276.628906 247.265625 C 268.980469 251.277344 263.28125 255.949219 259.269531 261 C 235.609375 290.8125 270.960938 333.917969 313.515625 333.914062 M 349.253906 242.878906 C 368.75 242.878906 388.207031 246.597656 404.65625 256.484375 C 431.039062 272.34375 419.03125 284.574219 394.675781 292.746094 C 370.71875 300.78125 346.347656 308.914062 320.703125 308.914062 C 318.328125 308.914062 315.9375 308.84375 313.542969 308.699219 C 296.792969 307.667969 282.5 301.492188 274.300781 286.214844 C 260.976562 261.375 291.304688 251.269531 311.316406 247.058594 C 323.410156 244.511719 336.339844 242.878906 349.253906 242.878906 "/>
<path style=" stroke:none;fill-rule:nonzero;fill:rgb(80.389404%,61.569214%,20.779419%);fill-opacity:1;" d="M 320.703125 308.914062 C 346.347656 308.914062 370.71875 300.78125 394.675781 292.746094 C 419.03125 284.574219 431.039062 272.34375 404.65625 256.484375 C 388.207031 246.597656 368.75 242.878906 349.253906 242.878906 C 336.339844 242.878906 323.410156 244.511719 311.316406 247.058594 C 291.304688 251.269531 260.976562 261.375 274.300781 286.214844 C 282.5 301.492188 296.792969 307.667969 313.542969 308.699219 C 315.9375 308.84375 318.328125 308.914062 320.703125 308.914062 M 357.097656 251.039062 C 371.964844 251.039062 385.109375 255.875 383.253906 271.582031 C 381.683594 284.804688 359.691406 285.96875 348.792969 285.96875 C 348.085938 285.96875 347.421875 285.960938 346.8125 285.953125 C 333.070312 285.800781 305.835938 276.101562 314.21875 264.671875 C 315.765625 262.558594 318.539062 260.378906 322.84375 258.195312 C 329.511719 254.808594 343.976562 251.039062 357.097656 251.039062 "/>
<path style=" stroke:none;fill-rule:nonzero;fill:rgb(76.078796%,55.288696%,21.179199%);fill-opacity:1;" d="M 462.511719 427.230469 C 467.074219 427.230469 471.851562 426.492188 476.820312 424.898438 C 516.894531 412.042969 493.472656 387.109375 485.410156 361.988281 C 478.523438 340.527344 485.425781 313.621094 458.628906 313.621094 C 457.136719 313.621094 455.53125 313.703125 453.820312 313.878906 C 429.15625 316.371094 414.421875 326.445312 408.273438 340.523438 C 401.722656 355.515625 404.917969 375.054688 416.21875 394.832031 C 426.625 413.03125 442.5 427.230469 462.511719 427.230469 M 481.726562 389.074219 C 481.726562 391.300781 481.378906 393.523438 480.574219 395.714844 C 478.152344 402.324219 473.398438 404.734375 468.074219 404.734375 C 467.882812 404.734375 467.695312 404.730469 467.507812 404.726562 C 462.070312 404.554688 456.113281 401.957031 451.5 398.796875 C 440.796875 391.464844 429.539062 372.808594 429.53125 357.066406 C 429.523438 348.234375 433.0625 340.324219 442.222656 335.84375 C 446.480469 333.765625 449.988281 332.851562 452.921875 332.851562 C 463.214844 332.851562 466.410156 344.117188 469.777344 355.90625 C 472.636719 365.925781 481.726562 377.632812 481.726562 389.074219 "/>
<path style=" stroke:none;fill-rule:nonzero;fill:rgb(76.078796%,55.288696%,21.179199%);fill-opacity:1;" d="M 383.425781 459.753906 C 401.804688 459.753906 418.566406 454.273438 412.308594 431.085938 C 408.402344 416.617188 398.851562 403.710938 394.886719 388.417969 C 391.242188 374.375 389.785156 366.34375 375.734375 360.703125 C 364.695312 356.265625 347.878906 353.632812 330.652344 353.632812 C 319.011719 353.632812 307.179688 354.835938 296.820312 357.5 C 287.464844 359.90625 279.300781 363.503906 273.558594 368.484375 C 255.640625 384.007812 234.675781 425.785156 261.425781 443.492188 C 287.457031 460.722656 326.644531 451.988281 356.007812 456.949219 C 363.476562 458.214844 373.679688 459.753906 383.425781 459.753906 M 390.570312 428.472656 C 390.570312 432.226562 387.941406 434.699219 380.027344 434.757812 L 379.96875 434.757812 C 379.726562 434.757812 379.484375 434.757812 379.242188 434.757812 C 359.496094 434.757812 339.066406 430.015625 319.710938 429.878906 C 319.445312 429.875 319.179688 429.875 318.910156 429.875 C 317.007812 429.875 314.898438 429.917969 312.644531 429.960938 C 310.386719 430.003906 307.988281 430.042969 305.511719 430.042969 C 289.816406 430.042969 270.972656 428.359375 265.625 414.308594 C 264.582031 411.566406 264.105469 408.796875 264.105469 406.046875 C 264.113281 388.769531 282.988281 372.324219 297.960938 368.476562 C 306.34375 366.324219 316.464844 365.179688 327.242188 365.179688 C 327.652344 365.179688 328.066406 365.179688 328.480469 365.179688 C 347.5625 365.179688 368.328125 365.402344 373.738281 386.234375 C 376.234375 395.835938 380.351562 404.324219 383.984375 411.804688 C 386.945312 417.898438 390.570312 424.070312 390.570312 428.472656 "/>
<path style=" stroke:none;fill-rule:nonzero;fill:rgb(76.078796%,55.288696%,21.179199%);fill-opacity:1;" d="M 203.902344 441.003906 C 216.234375 441.003906 227.40625 428.859375 231.511719 416.359375 C 235.15625 405.269531 232.933594 392.273438 236.574219 381.175781 C 239.699219 371.667969 247.015625 365.097656 251.710938 356.382812 C 263.207031 335.066406 249.082031 312.5625 230.542969 312.5625 C 224.464844 312.5625 217.914062 314.984375 211.636719 320.65625 C 206.257812 325.523438 200.242188 335.589844 194.964844 347.890625 C 182.304688 377.390625 173.867188 419.730469 188.488281 434.011719 C 193.550781 438.949219 198.820312 441.007812 203.902344 441.003906 M 225.300781 331.925781 C 237.238281 331.925781 234.277344 346.835938 230.773438 352.753906 C 223.96875 364.226562 217.742188 375.210938 217.375 388.9375 C 217.21875 394.441406 213.027344 416.816406 203.5 416.816406 C 203.261719 416.816406 203.027344 416.800781 202.78125 416.773438 C 197.746094 416.175781 190.644531 403.910156 191.664062 392.191406 C 192.832031 378.757812 197.945312 365.300781 203.148438 352.449219 C 205.488281 346.671875 212 334.425781 221.117188 332.425781 C 222.683594 332.082031 224.070312 331.925781 225.300781 331.925781 "/>
<path style=" stroke:none;fill-rule:nonzero;fill:rgb(80.389404%,61.569214%,20.779419%);fill-opacity:1;" d="M 203.5 416.816406 C 213.027344 416.816406 217.21875 394.441406 217.375 388.9375 C 217.742188 375.210938 223.96875 364.226562 230.773438 352.753906 C 234.277344 346.835938 237.238281 331.925781 225.300781 331.925781 C 224.070312 331.925781 222.683594 332.082031 221.117188 332.425781 C 212 334.425781 205.488281 346.671875 203.148438 352.449219 C 197.945312 365.300781 192.832031 378.757812 191.664062 392.191406 C 190.644531 403.910156 197.746094 416.175781 202.78125 416.773438 C 203.027344 416.800781 203.261719 416.816406 203.5 416.816406 M 219.617188 339.570312 C 219.910156 339.570312 220.199219 339.605469 220.480469 339.671875 C 221.199219 339.84375 221.882812 340.253906 222.5 340.929688 C 226.164062 344.921875 222.355469 364.589844 212.953125 364.589844 C 211.707031 364.589844 210.363281 364.246094 208.929688 363.472656 C 202.066406 359.789062 212.363281 339.570312 219.617188 339.570312 "/>
<path style=" stroke:none;fill-rule:nonzero;fill:rgb(81.568909%,63.529968%,20.779419%);fill-opacity:1;" d="M 468.074219 404.734375 C 473.398438 404.734375 478.152344 402.324219 480.574219 395.714844 C 481.378906 393.523438 481.726562 391.300781 481.726562 389.074219 C 481.726562 377.632812 472.636719 365.925781 469.777344 355.90625 C 466.410156 344.117188 463.214844 332.851562 452.921875 332.851562 C 449.988281 332.851562 446.480469 333.765625 442.222656 335.84375 C 433.0625 340.324219 429.523438 348.234375 429.53125 357.066406 C 429.539062 372.808594 440.796875 391.464844 451.5 398.796875 C 456.113281 401.957031 462.070312 404.554688 467.507812 404.726562 C 467.695312 404.730469 467.882812 404.734375 468.074219 404.734375 M 453.175781 351.238281 C 453.714844 351.238281 454.28125 351.285156 454.875 351.382812 C 465.859375 353.15625 473.726562 389.03125 459.167969 390.449219 C 458.882812 390.480469 458.597656 390.492188 458.320312 390.492188 C 444.234375 390.492188 438.191406 355.871094 450.542969 351.65625 C 451.34375 351.382812 452.21875 351.238281 453.175781 351.238281 "/>
<path style=" stroke:none;fill-rule:nonzero;fill:rgb(81.568909%,63.529968%,20.779419%);fill-opacity:1;" d="M 379.242188 434.757812 C 379.484375 434.757812 379.726562 434.757812 379.96875 434.757812 L 380.027344 434.757812 C 387.941406 434.699219 390.570312 432.226562 390.570312 428.472656 C 390.570312 424.070312 386.945312 417.898438 383.984375 411.804688 C 380.351562 404.324219 376.234375 395.835938 373.738281 386.234375 C 368.328125 365.402344 347.5625 365.179688 328.480469 365.179688 C 328.066406 365.179688 327.652344 365.179688 327.242188 365.179688 C 316.464844 365.179688 306.34375 366.324219 297.960938 368.476562 C 282.988281 372.324219 264.113281 388.769531 264.105469 406.046875 C 264.105469 408.796875 264.582031 411.566406 265.625 414.308594 C 270.972656 428.359375 289.816406 430.042969 305.511719 430.042969 C 307.988281 430.042969 310.386719 430.003906 312.644531 429.960938 C 314.898438 429.917969 317.007812 429.875 318.910156 429.875 C 319.179688 429.875 319.445312 429.875 319.710938 429.878906 C 339.066406 430.015625 359.496094 434.757812 379.242188 434.757812 M 319.664062 376.796875 C 331.628906 376.796875 343.894531 380.445312 351.355469 388.394531 C 365.347656 403.320312 359.132812 414.167969 341.015625 415.09375 C 328.929688 415.714844 314.605469 421.121094 302.554688 421.121094 C 301.65625 421.121094 300.769531 421.089844 299.898438 421.023438 C 289.816406 420.277344 284.976562 414.8125 283.886719 408.074219 C 282.285156 398.171875 288.78125 385.515625 298.644531 381.007812 C 304.667969 378.25 312.105469 376.796875 319.664062 376.796875 "/>
<path style=" stroke:none;fill-rule:nonzero;fill:rgb(45.098877%,78.819275%,23.529053%);fill-opacity:1;" d="M 258.65625 486.273438 C 260.449219 487.6875 262.035156 489.472656 263.324219 491.722656 C 271.285156 505.605469 272.027344 526.59375 270.839844 542.265625 C 268.875 568.066406 264.039062 581.835938 245.253906 590.355469 C 233.867188 595.519531 218.097656 593.554688 205.914062 593.273438 C 196.476562 593.058594 185.808594 589.632812 177.070312 585.867188 C 159.246094 578.179688 163.492188 553.40625 166.972656 537.273438 C 168.855469 528.582031 171.570312 520.378906 173.066406 511.628906 C 174.328125 504.203125 172.375 494.414062 175.644531 487.542969 C 182.265625 473.652344 201.011719 475.210938 213.210938 476.691406 C 226.324219 478.285156 247.6875 477.625 258.65625 486.273438 "/>
<path style=" stroke:none;fill-rule:nonzero;fill:rgb(78.819275%,89.408875%,24.708557%);fill-opacity:1;" d="M 245.253906 590.355469 C 245.742188 590.132812 246.222656 589.90625 246.691406 589.679688 C 246.222656 589.90625 245.742188 590.132812 245.253906 590.355469 M 246.71875 589.664062 C 246.722656 589.664062 246.726562 589.664062 246.726562 589.664062 C 246.726562 589.664062 246.722656 589.664062 246.71875 589.664062 "/>
<path style=" stroke:none;fill-rule:nonzero;fill:rgb(67.83905%,85.488892%,16.468811%);fill-opacity:1;" d="M 234.855469 593.191406 C 238.542969 592.671875 242.070312 591.796875 245.253906 590.355469 C 245.742188 590.132812 246.222656 589.90625 246.691406 589.679688 C 246.703125 589.675781 246.710938 589.667969 246.71875 589.664062 C 246.722656 589.664062 246.726562 589.664062 246.726562 589.664062 C 252.097656 587.042969 256.242188 583.929688 259.488281 580.171875 C 257.726562 572.152344 252.898438 566.386719 247.207031 566.386719 C 240.027344 566.386719 234.207031 575.542969 234.207031 586.839844 C 234.207031 589.058594 234.4375 591.191406 234.855469 593.191406 "/>
<path style=" stroke:none;fill-rule:nonzero;fill:rgb(78.819275%,89.408875%,24.708557%);fill-opacity:1;" d="M 205.914062 593.273438 C 205.714844 593.269531 205.511719 593.265625 205.3125 593.257812 C 205.511719 593.265625 205.714844 593.273438 205.914062 593.273438 "/>
<path style=" stroke:none;fill-rule:nonzero;fill:rgb(67.83905%,85.488892%,16.468811%);fill-opacity:1;" d="M 223.886719 593.867188 C 225.15625 593.867188 226.433594 593.847656 227.703125 593.800781 C 227.972656 592.445312 228.152344 591.042969 228.230469 589.589844 C 228.8125 578.308594 222.933594 568.808594 215.09375 568.375 C 214.90625 568.363281 214.71875 568.359375 214.539062 568.359375 C 206.933594 568.359375 200.40625 577 199.832031 588.015625 C 199.75 589.636719 199.8125 591.210938 199.984375 592.734375 C 201.789062 592.996094 203.570312 593.1875 205.3125 593.257812 C 205.511719 593.265625 205.714844 593.269531 205.914062 593.273438 C 211.421875 593.398438 217.652344 593.867188 223.886719 593.867188 "/>
<path style=" stroke:none;fill-rule:nonzero;fill:rgb(67.83905%,85.488892%,16.468811%);fill-opacity:1;" d="M 192.71875 591.273438 C 193.128906 589.632812 193.402344 587.894531 193.496094 586.085938 C 194.042969 575.496094 188.527344 566.585938 181.167969 566.171875 C 180.996094 566.167969 180.824219 566.160156 180.648438 566.160156 C 175.09375 566.160156 170.167969 571.085938 167.996094 578.136719 C 170.035156 581.410156 172.960938 584.09375 177.070312 585.867188 C 181.875 587.9375 187.269531 589.882812 192.71875 591.273438 "/>
<path style=" stroke:none;fill-rule:nonzero;fill:rgb(32.159424%,72.549438%,22.749329%);fill-opacity:1;" d="M 217.441406 531.421875 C 223.203125 531.421875 230.460938 525.929688 230.882812 519.214844 C 231.25 513.5 227.5625 505.613281 221.113281 505.613281 C 220.785156 505.613281 220.445312 505.632812 220.101562 505.675781 C 216.328125 506.140625 213.578125 510.140625 211.992188 514.574219 C 210.738281 518.066406 210.207031 521.832031 210.460938 524.347656 C 210.980469 529.386719 213.933594 531.421875 217.441406 531.421875 "/>
<path style=" stroke:none;fill-rule:nonzero;fill:rgb(32.159424%,72.549438%,22.749329%);fill-opacity:1;" d="M 200.496094 538.246094 C 203.300781 538.246094 205.683594 536.828125 205.28125 532.929688 C 204.988281 530.085938 202.695312 527.652344 202.433594 524.261719 C 202.230469 521.5625 203.371094 519.214844 201.519531 516.847656 C 200.6875 515.78125 199.707031 515.3125 198.679688 515.3125 C 196.871094 515.3125 194.910156 516.757812 193.335938 518.933594 C 189.632812 524.058594 188.09375 533.238281 195.785156 537.085938 C 197.203125 537.796875 198.917969 538.246094 200.496094 538.246094 "/>
<path style=" stroke:none;fill-rule:nonzero;fill:rgb(32.159424%,72.549438%,22.749329%);fill-opacity:1;" d="M 238.78125 513.914062 C 241.148438 513.914062 242.414062 511.316406 242.492188 508.109375 C 242.613281 502.902344 239.605469 496.070312 233.089844 496.070312 C 232.636719 496.070312 232.167969 496.101562 231.675781 496.171875 C 227.835938 496.714844 223.359375 499.828125 226.855469 503.933594 C 228.488281 505.847656 231.367188 506.46875 233.242188 508.792969 C 234.730469 510.652344 235.078125 512.925781 237.597656 513.714844 C 238.019531 513.847656 238.414062 513.914062 238.78125 513.914062 "/>
<path style=" stroke:none;fill-rule:nonzero;fill:rgb(32.159424%,72.549438%,22.749329%);fill-opacity:1;" d="M 215.054688 554.167969 C 215.605469 554.167969 216.183594 554.101562 216.785156 553.96875 C 221.433594 552.933594 231.882812 548.878906 234.59375 545.136719 C 237.953125 540.507812 238 532.183594 231.421875 532.183594 C 230.796875 532.183594 230.109375 532.261719 229.359375 532.421875 C 226.183594 533.105469 219.375 535.761719 214.503906 538.878906 C 212.105469 540.417969 210.179688 542.058594 209.390625 543.632812 C 206.9375 548.542969 209.84375 554.167969 215.054688 554.167969 "/>
<path style=" stroke:none;fill-rule:nonzero;fill:rgb(32.159424%,72.549438%,22.749329%);fill-opacity:1;" d="M 204.839844 511.511719 C 207.359375 511.511719 210.035156 509.476562 210.035156 506.347656 C 210.027344 503.105469 208.167969 501.78125 206.097656 501.78125 C 203.78125 501.78125 201.199219 503.445312 200.675781 505.941406 C 200.53125 506.648438 200.542969 507.414062 200.769531 508.230469 C 201.410156 510.523438 203.085938 511.511719 204.839844 511.511719 "/>
<path style=" stroke:none;fill-rule:nonzero;fill:rgb(32.159424%,72.549438%,22.749329%);fill-opacity:1;" d="M 239.074219 529.761719 C 243.855469 529.761719 246.03125 522.738281 241.773438 519.40625 C 240.472656 518.390625 239.253906 517.964844 238.171875 517.964844 C 233.988281 517.964844 231.800781 524.300781 234.679688 527.734375 C 235.222656 528.378906 235.933594 528.914062 236.847656 529.289062 C 237.636719 529.613281 238.382812 529.761719 239.074219 529.761719 "/>
<path style=" stroke:none;fill-rule:nonzero;fill:rgb(32.159424%,72.549438%,22.749329%);fill-opacity:1;" d="M 199.917969 553.648438 C 204.703125 553.648438 206.878906 546.625 202.621094 543.289062 C 201.320312 542.273438 200.105469 541.84375 199.019531 541.84375 C 194.835938 541.84375 192.648438 548.191406 195.53125 551.625 C 196.074219 552.261719 196.785156 552.796875 197.699219 553.175781 C 198.484375 553.503906 199.230469 553.648438 199.917969 553.648438 "/>
<path style=" stroke:none;fill-rule:nonzero;fill:rgb(82.348633%,67.83905%,23.529053%);fill-opacity:1;" d="M 348.792969 285.96875 C 359.691406 285.96875 381.683594 284.804688 383.253906 271.582031 C 385.109375 255.875 371.964844 251.039062 357.097656 251.039062 C 343.976562 251.039062 329.511719 254.808594 322.84375 258.195312 C 318.539062 260.378906 315.765625 262.558594 314.21875 264.671875 C 305.835938 276.101562 333.070312 285.800781 346.8125 285.953125 C 347.421875 285.960938 348.085938 285.96875 348.792969 285.96875 "/>
<path style=" stroke:none;fill-rule:nonzero;fill:rgb(83.139038%,69.40918%,23.139954%);fill-opacity:1;" d="M 302.554688 421.121094 C 314.605469 421.121094 328.929688 415.714844 341.015625 415.09375 C 359.132812 414.167969 365.347656 403.320312 351.355469 388.394531 C 343.894531 380.445312 331.628906 376.796875 319.664062 376.796875 C 312.105469 376.796875 304.667969 378.25 298.644531 381.007812 C 288.78125 385.515625 282.285156 398.171875 283.886719 408.074219 C 284.976562 414.8125 289.816406 420.277344 299.898438 421.023438 C 300.769531 421.089844 301.65625 421.121094 302.554688 421.121094 "/>
<path style=" stroke:none;fill-rule:nonzero;fill:rgb(83.139038%,69.40918%,23.139954%);fill-opacity:1;" d="M 458.320312 390.492188 C 458.597656 390.492188 458.882812 390.480469 459.167969 390.449219 C 473.726562 389.03125 465.859375 353.15625 454.875 351.382812 C 454.28125 351.285156 453.714844 351.238281 453.175781 351.238281 C 452.21875 351.238281 451.34375 351.382812 450.542969 351.65625 C 438.191406 355.871094 444.234375 390.492188 458.320312 390.492188 "/>
<path style=" stroke:none;fill-rule:nonzero;fill:rgb(82.348633%,67.83905%,23.529053%);fill-opacity:1;" d="M 212.953125 364.589844 C 222.355469 364.589844 226.164062 344.921875 222.5 340.929688 C 221.882812 340.253906 221.199219 339.84375 220.480469 339.671875 C 220.199219 339.605469 219.910156 339.570312 219.617188 339.570312 C 212.363281 339.570312 202.066406 359.789062 208.929688 363.472656 C 210.363281 364.246094 211.707031 364.589844 212.953125 364.589844 "/>
</g>
</svg>
